#!OML:ASF F:\VICON\USERDATA\INSTALL\rory3\rory3.ASF
:FULLY-SPECIFIED
:DEGREES
3147
root 1.37068 16.3115 -4.45722 2.39191 28.4534 1.97073
lowerback 10.554 -3.82421 -7.75843
upperback 1.32047 -5.82721 2.86431
thorax -3.43193 -2.7902 8.13248
lowerneck -17.5405 -6.52929 -13.052
upperneck 19.8024 -8.33504 12.1861
head 10.3121 -3.51414 5.3133
rclavicle 4.18442e-014 6.36111e-015
rhumerus -12.1889 11.0105 -77.1199
rradius 137.033
rwrist -0.61872
rhand -13.2998 25.4767
rfingers 7.12502
rthumb 12.8042 -4.11061
lclavicle 4.18442e-014 6.36111e-015
lhumerus 1.69936 -25.2489 95.8482
lradius 117.12
lwrist -12.0949
lhand -6.97623 5.87708
lfingers 7.12502
lthumb 18.8937 34.9795
rfemur -42.7646 -1.37227 6.1608
rtibia 38.7678
rfoot -4.71129 -10.0208
rtoes 3.49543
lfemur 0.0123029 -5.30842 -14.1967
ltibia 42.5285
lfoot -31.6331 -4.20939
ltoes -32.5152
3148
root 1.37765 16.3514 -4.57414 2.50105 27.9639 1.91426
lowerback 10.2407 -3.80365 -7.82074
upperback 1.40578 -5.78049 2.92071
thorax -3.16462 -2.78472 8.18759
lowerneck -17.5996 -6.70794 -12.8748
upperneck 19.5656 -8.5497 11.941
head 10.249 -3.6246 5.14958
rclavicle 4.74101e-014 -2.70347e-014
rhumerus -10.9416 10.9153 -76.2773
rradius 137.207
rwrist -0.711375
rhand -13.3685 25.4249
rfingers 7.12502
rthumb 12.7379 -4.16661
lclavicle 4.74101e-014 -2.70347e-014
lhumerus 2.27917 -25.3417 95.8022
lradius 117.005
lwrist -11.4554
lhand -6.62888 6.15953
lfingers 7.12502
lthumb 19.2277 35.229
rfemur -42.9195 -1.73638 6.54191
rtibia 39.6256
rfoot -4.75719 -8.92326
rtoes 3.08508
lfemur -0.226252 -5.28126 -14.4836
ltibia 42.1844
lfoot -31.4806 -3.84185
ltoes -32.4367
3149
root 1.37941 16.3922 -4.68331 2.47947 27.5191 1.63527
lowerback 10.3971 -3.80755 -7.60676
upperback 1.17816 -5.77899 2.94079
thorax -3.51204 -2.75941 8.1176
lowerneck -17.265 -6.81161 -12.443
upperneck 19.3141 -8.73514 11.5292
head 10.0802 -3.734 4.8936
rclavicle 7.00716e-015 3.18055e-015
rhumerus -10.4767 11.0365 -75.7505
rradius 137.487
rwrist -0.655156
rhand -13.6259 25.2989
rfingers 7.12502
rthumb 12.4898 -4.30789
lclavicle 7.00716e-015 3.18055e-015
lhumerus 2.24402 -25.4363 95.7968
lradius 116.949
lwrist -10.926
lhand -6.72932 6.30542
lfingers 7.12502
lthumb 19.1311 35.3845
rfemur -43.031 -1.86141 7.07094
rtibia 40.6801
rfoot -5.1958 -8.20788
rtoes 1.72259
lfemur -0.420863 -5.32481 -14.4972
ltibia 41.7992
lfoot -31.2624 -3.8022
ltoes -31.8834
3150
root 1.37739 16.4405 -4.78918 2.35259 27.1087 1.34602
lowerback 10.8072 -3.84721 -7.25965
upperback 0.895661 -5.8301 2.86316
thorax -4.07274 -2.74934 7.90187
lowerneck -17.1146 -6.89119 -12.2612
upperneck 19.3254 -8.91779 11.5267
head 10.0719 -3.81024 4.83569
rclavicle 1.04859e-013 3.18055e-015
rhumerus -10.2527 11.3477 -75.5488
rradius 137.774
rwrist -0.428839
rhand -14.0954 25.3852
rfingers 7.12502
rthumb 12.0371 -4.24861
lclavicle 1.04859e-013 3.18055e-015
lhumerus 1.99494 -25.524 95.6397
lradius 116.978
lwrist -10.574
lhand -6.86332 6.59181
lfingers 7.12502
lthumb 19.0023 35.6836
rfemur -42.9728 -1.94643 7.59805
rtibia 41.8867
rfoot -5.86117 -7.68346
rtoes -2.35434
lfemur -0.512267 -5.35102 -14.4789
ltibia 41.3686
lfoot -30.9707 -3.74597
ltoes -31.4566
3151
root 1.37185 16.4964 -4.88585 2.27402 26.8398 1.22236
lowerback 10.7182 -3.85054 -7.36128
upperback 1.00078 -5.8347 2.93591
thorax -3.89289 -2.76337 8.0222
lowerneck -17.2422 -7.06195 -12.44
upperneck 19.0909 -9.13651 11.7828
head 10.0661 -3.89456 4.91663
rclavicle -1.25234e-014 9.93923e-015
rhumerus -9.40798 11.4355 -74.9312
rradius 137.914
rwrist -0.475684
rhand -14.2208 25.6407
rfingers 7.12502
rthumb 11.9162 -4.00016
lclavicle -1.25234e-014 9.93923e-015
lhumerus 2.3844 -25.6869 95.5092
lradius 116.984
lwrist -10.5406
lhand -6.88369 6.90918
lfingers 7.12502
lthumb 18.9827 36.0029
rfemur -42.7707 -2.11118 7.93553
rtibia 43.19
rfoot -6.60596 -7.33906
rtoes -5.13103
lfemur -0.588662 -5.35627 -14.5676
ltibia 40.9164
lfoot -30.5968 -3.81777
ltoes -30.9677
